<svg width="16" height="18" viewBox="0 0 16 18" fill="none" xmlns="http://www.w3.org/2000/svg">
<path fill-rule="evenodd" clip-rule="evenodd" d="M11.5563 17.3337C12.6643 17.3337 13.4081 16.6377 13.4623 15.5675L13.9969 4.68585H14.9267C15.2443 4.68585 15.5 4.42391 15.5 4.11707C15.5 3.81023 15.2443 3.55578 14.9267 3.55578H11.3858V2.43319C11.3858 1.35551 10.6343 0.666992 9.44112 0.666992H6.54339C5.35021 0.666992 4.6064 1.35551 4.6064 2.43319V3.55578H1.07335C0.76343 3.55578 0.5 3.81772 0.5 4.11707C0.5 4.42391 0.76343 4.68585 1.07335 4.68585H2.01085L2.54545 15.5749C2.59969 16.6451 3.328 17.3337 4.45145 17.3337H11.5563ZM10.1539 3.55578H5.84608V2.50803C5.84608 2.08145 6.16374 1.78209 6.63636 1.78209H9.35589C9.82851 1.78209 10.1539 2.08145 10.1539 2.50803V3.55578ZM11.4323 16.2036H4.55992C4.11829 16.2036 3.78512 15.8818 3.76188 15.4402L3.21953 4.68585H12.7572L12.2459 15.4402C12.2226 15.8893 11.8972 16.2036 11.4323 16.2036ZM10.3011 14.8939C10.5568 14.8939 10.7428 14.6918 10.7505 14.4075L10.9829 6.55684C10.9907 6.27993 10.797 6.07038 10.5336 6.07038C10.2934 6.07038 10.0919 6.28742 10.0842 6.55684L9.85174 14.4C9.84399 14.6769 10.0377 14.8939 10.3011 14.8939ZM5.70661 14.8939C5.97004 14.8939 6.16374 14.6769 6.15599 14.4L5.91581 6.55684C5.90806 6.28742 5.70661 6.07038 5.46643 6.07038C5.203 6.07038 5.0093 6.27993 5.01705 6.55684L5.24949 14.4075C5.25723 14.6918 5.44318 14.8939 5.70661 14.8939ZM7.99999 14.8939C8.25567 14.8939 8.47261 14.6769 8.47261 14.4075V6.55684C8.47261 6.28742 8.25567 6.07038 7.99999 6.07038C7.75206 6.07038 7.53511 6.28742 7.53511 6.55684V14.4075C7.53511 14.6769 7.75206 14.8939 7.99999 14.8939Z" fill="#7B8E98"/>
</svg>
